<?xml version="1.0" encoding="UTF-8" standalone="no"?><!-- Generator: Gravit.io --><svg xmlns="http://www.w3.org/2000/svg" xmlns:xlink="http://www.w3.org/1999/xlink" style="isolation:isolate" viewBox="-199.25 1520.767 1499.25 939.233" width="1499.25pt" height="939.233pt"><g><g><linearGradient id="_lgradient_0" x1="0.5" y1="1" x2="0.5000000000000001" y2="0" gradientTransform="matrix(1496.315,0,0,939.233,-199.25,1520.767)" gradientUnits="userSpaceOnUse"><stop offset="2.1739130434782608%" stop-opacity="1" style="stop-color:rgb(255,255,255)"/><stop offset="98.26086956521739%" stop-opacity="1" style="stop-color:rgb(213,213,213)"/></linearGradient><rect x="-199.25" y="1520.767" width="1496.315" height="939.233" transform="matrix(1,0,0,1,0,0)" fill="url(#_lgradient_0)"/><circle vector-effect="non-scaling-stroke" cx="544.7425015742056" cy="1990.3837118245872" r="394.18417188723583" fill="rgb(240,240,240)"/><ellipse vector-effect="non-scaling-stroke" cx="543.3307556773701" cy="2261.0000978856688" rx="254.17981597494133" ry="24.067834768989997" fill="rgb(200,198,198)"/></g><g><path d=" M -198.4 1858.395 L 533.351 1681.611 Q 528.158 1689.625 527.991 1690.326 Q 527.823 1691.026 -198.4 1867.109 L -198.4 1858.395 Z " fill="rgb(255,255,255)"/><g><path d=" M 517.867 1668.697 L 589.597 1776.254 L 1300 1946.944 L 1300 1772.747 L 517.867 1668.697 Z " fill="rgb(237,29,36)"/><path d=" M 517.867 1668.697 L 579.941 1761.056 L 1300 1918.886 L 1300 1772.747 L 517.867 1668.697 Z " fill="rgb(242,91,40)"/><path d=" M 517.867 1668.697 L 566.147 1741.181 L 1300 1896.673 L 1300 1772.747 L 517.867 1668.697 Z " fill="rgb(251,176,62)"/><path d=" M 517.867 1668.697 L 557.87 1728.321 L 1300 1872.706 L 1300 1772.747 L 517.867 1668.697 Z " fill="rgb(140,199,60)"/><path d=" M 517.867 1668.697 L 545.455 1710.784 L 1300 1845.232 L 1300 1772.747 L 517.867 1668.697 Z " fill="rgb(0,176,236)"/><path d=" M 517.867 1668.697 L 536.489 1696.755 L 1300 1821.85 L 1300 1772.747 L 517.867 1668.697 Z " fill="rgb(145,39,145)"/><path d=" M 517.867 1668.697 L 527.523 1683.895 L 1300 1796.129 L 1300 1772.747 L 517.867 1668.697 Z " fill="rgb(234,5,139)"/></g></g><g><g><path d=" M 674.236 2138.313 C 690.285 2143.2 719.143 2145.834 736.311 2152.401 C 777.754 2169.773 787.238 2184.981 788.118 2203.472 C 786.671 2252.958 730.59 2273.621 617.434 2261.587 C 522.198 2248.673 487.784 2243.793 475.823 2243.977 C 437.08 2247.205 430.036 2267.751 368.986 2263.935 C 332.223 2259.961 297.956 2233.263 298.14 2205.82 L 298.14 2205.82 C 298.14 2178.488 321.364 2157.538 363.116 2148.879 C 399.541 2142.301 425.002 2135.672 439.428 2126.572 L 646.059 2125.398 C 662.643 2134.644 659.928 2132.81 674.236 2138.313 Z " fill="rgb(55,49,128)"/><path d=" M 674.236 2138.313 C 690.285 2143.2 719.143 2145.834 736.311 2152.401 C 777.754 2169.773 787.238 2184.981 788.118 2203.472 C 781.331 2252.488 732.213 2266.87 619.056 2254.836 C 598.768 2252.085 581.166 2249.579 565.911 2247.339 C 548.761 2244.784 551.329 2237.886 563.876 2229.888 C 591.949 2212.587 617.882 2210.712 651.992 2183.966 C 660.001 2176.469 698.572 2171.786 719.25 2176.951 C 709.149 2168.811 687.584 2164.934 667.531 2168.967 C 646.025 2173.292 525.72 2185.568 482.868 2181.752 C 421.4 2165.43 385.809 2166.732 376.257 2185.658 C 393.941 2164.782 449.481 2178.964 482.868 2185.658 C 481.519 2193.01 475.558 2202.621 474.649 2234.584 C 435.906 2237.813 426.514 2251.155 365.464 2247.339 C 328.701 2243.365 297.956 2233.263 298.14 2205.82 L 298.14 2205.82 C 298.14 2178.488 321.364 2157.538 363.116 2148.879 C 399.541 2142.301 425.002 2135.672 439.428 2126.572 L 646.059 2125.398 C 662.643 2134.644 659.928 2132.81 674.236 2138.313 Z " fill="rgb(99,91,208)"/><g><path d=" M 482.868 2181.752 C 477.575 2191.677 474.321 2224.029 474.649 2243.977 C 544.517 2226.041 589.534 2209.616 612.012 2194.667 C 629.628 2183.909 646.076 2176.877 661.322 2173.534 C 677.979 2169.278 681.134 2157.831 663.67 2151.227 C 651.93 2147.509 645.839 2150.127 642.537 2157.097 C 630.467 2146.137 620.597 2146.898 601.446 2155.923 C 577.353 2165.652 557.015 2166.055 540.396 2154.749 C 520.73 2140.001 490.426 2165.829 511.045 2181.752 L 482.868 2181.752 Z " fill="rgb(229,120,92)"/><path d=" M 480.52 2187.623 C 477.584 2200.243 474.69 2207.872 474.649 2234.584 C 544.517 2216.649 589.534 2209.616 612.012 2194.667 C 629.628 2183.909 646.076 2176.877 661.322 2173.534 C 677.979 2169.278 681.134 2157.831 663.67 2151.227 C 651.93 2147.509 645.839 2150.127 642.537 2157.097 C 630.467 2146.137 620.597 2146.898 601.446 2155.923 C 577.353 2165.652 557.015 2166.055 540.396 2154.749 C 520.73 2140.001 499.818 2171.7 520.437 2187.623 L 480.52 2187.623 Z " fill="rgb(248,161,123)"/></g></g><g><g><g><path d=" M 675.637 2100.627 C 671.971 2096.824 668.311 2092.661 664.745 2088.194 C 642.097 2067.137 625.514 2007.114 623.753 1991.558 C 621.551 1948.559 627.448 1956.503 639.771 1953.521 C 652.095 1950.54 668.444 1974.344 676.258 2006.644 C 679.437 2019.787 682.014 2030.008 683.629 2042.784 C 689.487 2048.151 692.135 2054.554 697.875 2061.743 C 703.334 2068.58 708.049 2075.473 711.871 2082.063 C 725.517 2104.114 743.54 2122.907 763.463 2135.965 C 772.888 2133.761 780.763 2134.325 789.251 2135.122 C 799.687 2134.067 808.077 2131.195 813.947 2127.746 C 828.026 2119.253 828.233 2131.016 817.469 2138.313 C 817.531 2138.503 814.279 2140.323 808.077 2141.835 C 781.014 2151.86 814.221 2175.915 820.991 2143.009 C 823.775 2125.279 831.948 2122.018 831.727 2133.565 C 831.811 2135.453 831.764 2137.809 831.558 2140.661 C 831.081 2145.119 830.23 2148.453 829.21 2151.227 C 832.732 2148.806 836.266 2145.687 839.776 2141.835 C 845.444 2134.497 851.223 2138.35 845.646 2147.705 C 843.188 2151.392 840.104 2154.201 835.08 2157.097 L 840.95 2154.749 C 849.187 2151.007 852.654 2154.804 846.82 2161.794 C 843.298 2165.316 836.657 2168.067 829.21 2170.012 C 838.602 2171.773 838.614 2174.524 829.21 2178.23 C 797.366 2184.938 770.387 2177.526 748.201 2155.923 C 721.647 2142.117 697.395 2123.735 675.41 2100.744 L 675.637 2100.627 Z " fill="rgb(229,120,92)"/><path d=" M 675.637 2100.627 C 671.971 2096.824 668.311 2092.661 664.745 2088.194 C 636.814 2062.954 632.558 2007.114 630.797 1991.558 C 628.595 1948.559 627.448 1956.503 639.771 1953.521 C 652.095 1950.54 668.444 1974.344 676.258 2006.644 C 679.437 2019.787 682.014 2030.008 683.629 2042.784 C 689.487 2048.151 692.135 2054.554 697.875 2061.743 C 703.334 2068.58 708.049 2075.473 711.871 2082.063 C 725.517 2104.114 743.54 2122.907 763.463 2135.965 C 772.888 2133.761 780.763 2134.325 789.251 2135.122 C 799.687 2134.067 808.077 2131.195 813.947 2127.746 C 828.026 2119.253 828.233 2131.016 817.469 2138.313 C 817.531 2138.503 814.279 2140.323 808.077 2141.835 C 781.014 2151.86 814.221 2175.915 820.991 2143.009 C 823.775 2125.279 831.948 2122.018 831.727 2133.565 C 831.811 2135.453 831.764 2137.809 831.558 2140.661 C 831.081 2145.119 830.23 2148.453 829.21 2151.227 C 832.732 2148.806 836.266 2145.687 839.776 2141.835 C 845.444 2134.497 851.223 2138.35 845.646 2147.705 C 843.188 2151.392 840.104 2154.201 835.08 2157.097 L 840.95 2154.749 C 849.187 2151.007 852.654 2154.804 846.82 2161.794 C 843.298 2165.316 836.657 2168.067 829.21 2170.012 C 838.602 2171.773 838.614 2174.524 829.21 2178.23 C 797.366 2184.938 770.387 2177.526 748.201 2155.923 C 721.647 2142.117 697.395 2123.735 675.41 2100.744 L 675.637 2100.627 Z " fill="rgb(248,161,123)"/><linearGradient id="_lgradient_1" x1="0.06131118571266055" y1="0.420140697136222" x2="0.5988236858249376" y2="0.6273445242245024" gradientTransform="matrix(51.313,0,0,26.146,769.679,2139.958)" gradientUnits="userSpaceOnUse"><stop offset="0.43478260869565216%" stop-opacity="0" style="stop-color:rgb(248,161,123)"/><stop offset="98.69565217391305%" stop-opacity="1" style="stop-color:rgb(229,120,92)"/></linearGradient><path d=" M 808.077 2141.835 C 781.014 2151.86 814.221 2175.915 820.991 2143.009 C 816.148 2169.425 802.06 2166.637 792.814 2165.316 C 751.429 2155.63 771.182 2133.389 808.077 2141.835 Z " fill="url(#_lgradient_1)"/></g><g><path d=" M 412.92 2100.627 C 416.586 2096.824 420.246 2092.661 423.812 2088.194 C 446.46 2067.137 463.043 2007.114 464.804 1991.558 C 467.005 1948.559 461.109 1956.503 448.785 1953.521 C 436.461 1950.54 420.112 1974.344 412.299 2006.644 C 409.119 2019.787 406.542 2030.008 404.928 2042.784 C 399.07 2048.151 396.421 2054.554 390.681 2061.743 C 385.223 2068.58 380.507 2075.473 376.686 2082.063 C 363.04 2104.114 345.016 2122.907 325.093 2135.965 C 315.668 2133.761 307.793 2134.325 299.306 2135.122 C 288.87 2134.067 280.48 2131.195 274.609 2127.746 C 260.53 2119.253 260.324 2131.016 271.087 2138.313 C 271.026 2138.503 274.277 2140.323 280.48 2141.835 C 307.542 2151.86 274.336 2175.915 267.565 2143.009 C 264.781 2125.279 256.609 2122.018 256.83 2133.565 C 256.745 2135.453 256.793 2137.809 256.999 2140.661 C 257.476 2145.119 258.326 2148.453 259.347 2151.227 C 255.824 2148.806 252.291 2145.687 248.78 2141.835 C 243.112 2134.497 237.334 2138.35 242.91 2147.705 C 245.368 2151.392 248.452 2154.201 253.477 2157.098 L 247.606 2154.749 C 239.37 2151.007 235.903 2154.804 241.736 2161.794 C 245.258 2165.316 251.9 2168.067 259.347 2170.012 C 249.954 2171.773 249.943 2174.524 259.347 2178.23 C 291.19 2184.938 318.17 2177.526 340.356 2155.923 C 366.91 2142.117 391.161 2123.735 413.146 2100.744 L 412.92 2100.627 Z " fill="rgb(229,120,92)"/><path d=" M 412.92 2100.627 C 416.586 2096.824 420.246 2092.661 423.812 2088.194 C 453.223 2054.222 454.984 2009.022 458.213 1991.558 C 460.414 1948.559 461.109 1956.503 448.785 1953.521 C 436.461 1950.54 420.112 1974.344 412.299 2006.644 C 409.119 2019.787 406.542 2030.008 404.928 2042.784 C 399.07 2048.151 396.421 2054.554 390.681 2061.743 C 385.223 2068.58 380.507 2075.473 376.686 2082.063 C 363.04 2104.114 345.016 2122.907 325.093 2135.965 C 315.668 2133.761 307.793 2134.325 299.306 2135.122 C 288.87 2134.067 280.48 2131.195 274.609 2127.746 C 260.53 2119.253 260.324 2131.016 271.087 2138.313 C 271.026 2138.503 274.277 2140.323 280.48 2141.835 C 307.542 2151.86 274.336 2175.915 267.565 2143.009 C 264.781 2125.279 256.609 2122.018 256.83 2133.565 C 256.745 2135.453 256.793 2137.809 256.999 2140.661 C 257.476 2145.119 258.326 2148.453 259.347 2151.227 C 255.824 2148.806 252.291 2145.687 248.78 2141.835 C 243.112 2134.497 237.334 2138.35 242.91 2147.705 C 245.368 2151.392 248.452 2154.201 253.477 2157.098 L 247.606 2154.749 C 239.37 2151.007 235.903 2154.804 241.736 2161.794 C 245.258 2165.316 251.9 2168.067 259.347 2170.012 C 249.954 2171.773 249.943 2174.524 259.347 2178.23 C 291.19 2184.938 318.17 2177.526 340.356 2155.923 C 366.91 2142.117 391.161 2123.735 413.146 2100.744 L 412.92 2100.627 Z " fill="rgb(248,161,123)"/><linearGradient id="_lgradient_2" x1="0.06131118571266055" y1="0.420140697136222" x2="0.5988236858249376" y2="0.6273445242245024" gradientTransform="matrix(-57.114,0,0,26.138,323.958,2139.495)" gradientUnits="userSpaceOnUse"><stop offset="0.43478260869565216%" stop-opacity="0" style="stop-color:rgb(248,161,123)"/><stop offset="98.69565217391305%" stop-opacity="1" style="stop-color:rgb(229,120,92)"/></linearGradient><path d=" M 279.759 2141.364 C 306.821 2151.389 273.615 2175.444 266.844 2142.538 C 271.687 2168.953 285.776 2166.165 295.021 2164.844 C 344.439 2155.17 324.699 2132.941 279.759 2141.364 Z " fill="url(#_lgradient_2)"/></g></g><g><g><path d=" M 581.011 1859.517 C 615.371 1831.163 645.252 1839.74 662.496 1883.185 C 671.503 1908.916 675.759 1944.283 689.499 1979.817 L 620.23 2002.124 L 581.011 1859.517 Z " fill="rgb(198,242,242)"/><path d=" M 510.26 1859.517 C 475.9 1831.163 441.799 1839.74 424.555 1883.185 C 415.548 1908.916 407.293 1940.12 393.553 1975.655 L 466.431 2000.95 L 510.26 1859.517 Z " fill="rgb(198,242,242)"/></g><path d=" M 451.907 1976.207 C 435.319 1946.21 450.288 1848.912 462.909 1843.629 C 520.477 1824.273 573.712 1824.285 622.579 1843.629 C 635.493 1849.499 648.114 1952.814 633.614 1976.06 C 610.35 2015.704 614.51 2065.496 646.059 2125.398 C 583.808 2146.206 503.594 2142.305 439.428 2126.572 C 471.252 2065.704 475.424 2015.593 451.907 1976.207 Z " fill="rgb(158,219,219)"/></g></g><path d=" M 599.098 1715.199 C 611.939 1702.157 613.406 1739.12 599.098 1744.55 L 599.098 1715.199 Z " fill="rgb(253,140,112)"/><path d=" M 490.708 1715.199 C 477.867 1702.157 476.4 1739.12 490.708 1744.55 L 490.708 1715.199 Z " fill="rgb(253,140,112)"/><g><path d=" M 579.317 1835.802 C 572.999 1826.202 569.808 1815.102 569.747 1802.537 L 519.263 1802.537 C 519.472 1814.784 516.674 1826.286 510.906 1837.075 C 507.268 1841.568 505.174 1846.822 505.174 1852.434 C 504.294 1870.338 523.324 1884.72 545.679 1884.72 C 568.034 1884.72 589.045 1872.76 586.183 1852.434 C 586.183 1846.276 583.662 1840.549 579.317 1835.802 Z " fill="rgb(248,161,123)"/><path d=" M 571.351 1816.951 C 570.3 1812.389 569.771 1807.581 569.747 1802.537 L 519.263 1802.537 C 519.344 1807.278 518.974 1811.907 518.134 1816.421 C 526.139 1822.544 535.327 1826.018 545.092 1826.018 C 554.573 1826.018 563.511 1822.743 571.351 1816.951 Z " fill-rule="evenodd" fill="rgb(229,120,92)"/><ellipse vector-effect="non-scaling-stroke" cx="544.7425015742059" cy="1735.616875489427" rx="56.35395458104938" ry="78.66072826938125" fill="rgb(248,161,123)"/></g><g><path d=" M 505.174 1720.808 C 512.635 1734.262 524.652 1734.321 533.351 1720.808 C 525.374 1727.779 513.485 1727.838 505.174 1720.808 Z " fill="rgb(229,120,92)"/><path d=" M 557.951 1720.808 C 565.722 1734.262 578.24 1734.321 587.302 1720.808 C 578.992 1727.779 566.607 1727.838 557.951 1720.808 Z " fill="rgb(229,120,92)"/><path d=" M 536.874 1750.476 C 536.782 1744.997 532.286 1746.183 533.351 1753.247 C 534.598 1756.75 538.855 1757.667 544.278 1757.924 C 538.525 1756.199 537.314 1754.989 536.874 1750.476 Z " fill="rgb(229,120,92)"/><path d=" M 538.589 1779.585 C 535.265 1779.585 532.566 1782.284 532.566 1785.608 C 532.576 1797.148 555.94 1797.297 555.991 1785.608 C 555.991 1782.284 553.292 1779.585 549.968 1779.585 C 547.76 1779.585 545.208 1780.775 544.167 1782.553 C 542.989 1780.945 541.946 1779.585 538.589 1779.585 Z " fill="rgb(255,127,95)"/><path d=" M 561.528 1785.608 C 550.228 1788.217 538.903 1788.24 527.481 1785.608" fill="rgb(255,127,95)" vector-effect="non-scaling-stroke" stroke-width="1" stroke="rgb(195,94,69)" stroke-linejoin="miter" stroke-linecap="square" stroke-miterlimit="3"/></g><g><path d=" M 600.272 1722.702 C 609.025 1711.97 610.838 1702.144 610.838 1687.426 C 610.838 1670.168 603.651 1654.521 591.983 1643.168 C 593.283 1640.066 593.973 1636.742 593.973 1633.289 C 593.973 1615.897 576.455 1601.776 554.878 1601.776 C 534.075 1601.776 517.045 1614.901 515.846 1631.429 C 494.863 1641.879 480.52 1663.045 480.52 1687.426 C 480.52 1699.278 484.01 1710.886 489.912 1720.354 C 501.01 1686.079 552.951 1695.994 564.843 1670.354 C 576.702 1700.161 598.401 1708.855 600.272 1722.702 Z " fill="rgb(112,48,0)" vector-effect="non-scaling-stroke" stroke-width="3" stroke="rgb(93,37,0)" stroke-linejoin="miter" stroke-linecap="square" stroke-miterlimit="3"/><path d=" M 487.564 1689.925 C 485.648 1652.722 546.533 1664.627 559.421 1639.925 C 572.75 1672.689 497.414 1670.504 487.564 1689.925 Z " fill="rgb(112,48,0)" vector-effect="non-scaling-stroke" stroke-width="3" stroke="rgb(93,37,0)" stroke-linejoin="miter" stroke-linecap="square" stroke-miterlimit="3"/><path d=" M 522.345 1626.031 C 518.786 1626.908 519.263 1631.201 522.345 1630.54 C 548.548 1623.487 566.873 1627.321 585.248 1639.159 C 589.944 1642.061 592.072 1635.97 585.248 1633.289 C 566.718 1623.039 548.464 1619.729 522.345 1626.031 Z " fill="rgb(93,37,0)"/></g></g></g></svg>